<svg width="98" height="60" viewBox="0 0 98 60" fill="none" xmlns="http://www.w3.org/2000/svg">
<circle cx="49.5" cy="22.5" r="1.5" fill="#555555"/>
<path d="M33 32.8498C32.5642 32.8026 32.1425 32.7702 31.7348 32.7526C31.3341 32.7349 30.9265 32.726 30.5117 32.726C29.3942 32.726 28.2484 32.8174 27.0746 33C27.1168 32.8586 27.1625 32.7349 27.2117 32.6288C27.2679 32.5169 27.3171 32.3961 27.3593 32.2665C27.4015 32.131 27.4366 31.9748 27.4647 31.7981C27.4928 31.6213 27.5069 31.3945 27.5069 31.1176C27.5069 30.8348 27.4823 30.5667 27.4331 30.3134C27.3839 30.0542 27.3101 29.8273 27.2117 29.6329C27.1133 29.4326 26.9903 29.2735 26.8427 29.1557C26.7021 29.0378 26.5369 28.9789 26.3471 28.9789C26.1362 28.9789 25.957 29.0319 25.8094 29.138C25.6688 29.2441 25.5528 29.3884 25.4615 29.571C25.3771 29.7537 25.3139 29.9628 25.2717 30.1985C25.2365 30.4342 25.219 30.6846 25.219 30.9497C25.219 31.2148 25.2365 31.4446 25.2717 31.639C25.3139 31.8276 25.3595 31.9925 25.4088 32.1339C25.465 32.2753 25.5177 32.402 25.5669 32.5139C25.6161 32.62 25.6513 32.726 25.6723 32.8321C25.1873 32.785 24.7094 32.7496 24.2384 32.726C23.7745 32.7025 23.3106 32.6907 22.8467 32.6907C22.3828 32.6907 21.9154 32.7025 21.4444 32.726C20.9805 32.7496 20.4991 32.785 20 32.8321C20.4358 31.7716 20.8154 30.7199 21.1387 29.6771C21.469 28.6343 21.7502 27.5855 21.9822 26.5309C22.2141 25.4763 22.4004 24.4099 22.541 23.3318C22.6886 22.2536 22.7975 21.1489 22.8678 20.0177C23.3879 20.0766 23.9573 20.1208 24.5758 20.1502C25.2014 20.1738 25.841 20.1856 26.4947 20.1856C27.05 20.1856 27.5877 20.1738 28.1079 20.1502C28.635 20.1267 29.12 20.0766 29.5629 20C29.612 21.1253 29.7386 22.2329 29.9424 23.3229C30.1463 24.4129 30.3993 25.494 30.7015 26.5663C31.0108 27.6327 31.3623 28.6902 31.7559 29.739C32.1495 30.7818 32.5642 31.8187 33 32.8498ZM27.0957 25.9918C27.0816 25.8799 27.0395 25.7149 26.9692 25.4969C26.9059 25.3084 26.811 25.061 26.6845 24.7546C26.558 24.4423 26.3717 24.0417 26.1257 23.5527C26.0695 23.8591 26.0062 24.133 25.9359 24.3746C25.8656 24.6102 25.7989 24.8253 25.7356 25.0197C25.6723 25.2083 25.6161 25.3821 25.5669 25.5411C25.5247 25.7002 25.5036 25.8504 25.5036 25.9918C25.5036 26.2864 25.5845 26.5162 25.7462 26.6812C25.9148 26.8403 26.1011 26.9198 26.3049 26.9198C26.5228 26.9198 26.7056 26.8314 26.8532 26.6547C27.0008 26.4779 27.0816 26.257 27.0957 25.9918Z" fill="black"/>
<path d="M76 32.8498C75.5642 32.8026 75.1424 32.7702 74.7347 32.7526C74.3341 32.7349 73.9264 32.726 73.5118 32.726C72.3942 32.726 71.2483 32.8174 70.0746 33C70.1167 32.8586 70.1624 32.7349 70.2117 32.6288C70.2678 32.5169 70.3171 32.3961 70.3592 32.2665C70.4013 32.131 70.4366 31.9748 70.4647 31.7981C70.4927 31.6213 70.5068 31.3945 70.5068 31.1176C70.5068 30.8348 70.4823 30.5667 70.433 30.3134C70.3839 30.0542 70.3101 29.8273 70.2117 29.6329C70.1132 29.4326 69.9902 29.2735 69.8426 29.1557C69.7021 29.0378 69.5369 28.9789 69.3471 28.9789C69.1362 28.9789 68.9569 29.0319 68.8094 29.138C68.6687 29.2441 68.5528 29.3884 68.4614 29.571C68.377 29.7537 68.3138 29.9628 68.2715 30.1985C68.2365 30.4342 68.2188 30.6846 68.2188 30.9497C68.2188 31.2148 68.2365 31.4446 68.2715 31.639C68.3138 31.8276 68.3595 31.9925 68.4087 32.1339C68.465 32.2753 68.5177 32.402 68.5668 32.5139C68.6161 32.62 68.6512 32.726 68.6723 32.8321C68.1873 32.785 67.7092 32.7496 67.2383 32.726C66.7744 32.7025 66.3106 32.6907 65.8467 32.6907C65.3828 32.6907 64.9153 32.7025 64.4444 32.726C63.9805 32.7496 63.499 32.785 63 32.8321C63.4356 31.7716 63.8153 30.7199 64.1387 29.6771C64.469 28.6343 64.7501 27.5855 64.982 26.5309C65.214 25.4763 65.4002 24.4099 65.5409 23.3318C65.6885 22.2536 65.7974 21.1489 65.8677 20.0177C66.3879 20.0766 66.9573 20.1208 67.5757 20.1502C68.2014 20.1738 68.8411 20.1856 69.4946 20.1856C70.0499 20.1856 70.5877 20.1738 71.1078 20.1502C71.635 20.1267 72.1199 20.0766 72.5628 20C72.6121 21.1253 72.7386 22.2329 72.9423 23.3229C73.1461 24.4129 73.3993 25.494 73.7014 26.5663C74.0108 27.6327 74.3622 28.6902 74.7559 29.739C75.1494 30.7818 75.5642 31.8187 76 32.8498ZM70.0956 25.9918C70.0816 25.8799 70.0395 25.7149 69.9691 25.4969C69.9058 25.3084 69.8109 25.061 69.6844 24.7546C69.5579 24.4423 69.3717 24.0417 69.1257 23.5527C69.0694 23.8591 69.0061 24.133 68.9359 24.3746C68.8655 24.6102 68.7988 24.8253 68.7356 25.0197C68.6723 25.2083 68.6161 25.3821 68.5668 25.5411C68.5247 25.7002 68.5035 25.8504 68.5035 25.9918C68.5035 26.2864 68.5845 26.5162 68.746 26.6812C68.9148 26.8403 69.1011 26.9198 69.3049 26.9198C69.5229 26.9198 69.7055 26.8314 69.853 26.6547C70.0008 26.4779 70.0816 26.257 70.0956 25.9918Z" fill="black"/>
<path d="M76 32.8498C75.5642 32.8026 75.1424 32.7702 74.7347 32.7526C74.3341 32.7349 73.9264 32.726 73.5118 32.726C72.3942 32.726 71.2483 32.8174 70.0746 33C70.1167 32.8586 70.1624 32.7349 70.2117 32.6288C70.2678 32.5169 70.3171 32.3961 70.3592 32.2665C70.4013 32.131 70.4366 31.9748 70.4647 31.7981C70.4927 31.6213 70.5068 31.3945 70.5068 31.1176C70.5068 30.8348 70.4823 30.5667 70.433 30.3134C70.3839 30.0542 70.3101 29.8273 70.2117 29.6329C70.1132 29.4326 69.9902 29.2735 69.8426 29.1557C69.7021 29.0378 69.5369 28.9789 69.3471 28.9789C69.1362 28.9789 68.9569 29.0319 68.8094 29.138C68.6687 29.2441 68.5528 29.3884 68.4614 29.571C68.377 29.7537 68.3138 29.9628 68.2715 30.1985C68.2365 30.4342 68.2188 30.6846 68.2188 30.9497C68.2188 31.2148 68.2365 31.4446 68.2715 31.639C68.3138 31.8276 68.3595 31.9925 68.4087 32.1339C68.465 32.2753 68.5177 32.402 68.5668 32.5139C68.6161 32.62 68.6512 32.726 68.6723 32.8321C68.1873 32.785 67.7092 32.7496 67.2383 32.726C66.7744 32.7025 66.3106 32.6907 65.8467 32.6907C65.3828 32.6907 64.9153 32.7025 64.4444 32.726C63.9805 32.7496 63.499 32.785 63 32.8321C63.4356 31.7716 63.8153 30.7199 64.1387 29.6771C64.469 28.6343 64.7501 27.5855 64.982 26.5309C65.214 25.4763 65.4002 24.4099 65.5409 23.3318C65.6885 22.2536 65.7974 21.1489 65.8677 20.0177C66.3879 20.0766 66.9573 20.1208 67.5757 20.1502C68.2014 20.1738 68.8411 20.1856 69.4946 20.1856C70.0499 20.1856 70.5877 20.1738 71.1078 20.1502C71.635 20.1267 72.1199 20.0766 72.5628 20C72.6121 21.1253 72.7386 22.2329 72.9423 23.3229C73.1461 24.4129 73.3993 25.494 73.7014 26.5663C74.0108 27.6327 74.3622 28.6902 74.7559 29.739C75.1494 30.7818 75.5642 31.8187 76 32.8498ZM70.0956 25.9918C70.0816 25.8799 70.0395 25.7149 69.9691 25.4969C69.9058 25.3084 69.8109 25.061 69.6844 24.7546C69.5579 24.4423 69.3717 24.0417 69.1257 23.5527C69.0694 23.8591 69.0061 24.133 68.9359 24.3746C68.8655 24.6102 68.7988 24.8253 68.7356 25.0197C68.6723 25.2083 68.6161 25.3821 68.5668 25.5411C68.5247 25.7002 68.5035 25.8504 68.5035 25.9918C68.5035 26.2864 68.5845 26.5162 68.746 26.6812C68.9148 26.8403 69.1011 26.9198 69.3049 26.9198C69.5229 26.9198 69.7055 26.8314 69.853 26.6547C70.0008 26.4779 70.0816 26.257 70.0956 25.9918Z" fill="black"/>
<path d="M40.3164 20.426C40.3164 20.426 39.2985 30.1322 51.5321 30.7199C51.5321 30.7199 49.5996 32.0796 45.018 32.3103C40.4364 32.541 35.718 30.3006 34.5244 20.7721L40.3164 20.426Z" fill="#555555"/>
<path d="M55.5399 28.4415C59.6696 27.9359 61.6044 25.7215 62.0308 23.7818C62.36 22.2836 61.8103 20.8731 60.6298 20.1887C59.414 19.4843 58.2649 19.72 57.3658 20.2471C57.2192 19.9532 56.9137 19.7527 56.5631 19.7527H34.9067C34.436 19.7527 34.0457 20.1134 34.0135 20.5777C34.0079 20.6624 33.5941 27.7863 38.787 31.6619H34.8951C34.4008 31.6619 34 32.0582 34 32.547C34 33.0358 34.4008 33.4321 34.8951 33.4321H60.6214C61.1158 33.4321 61.5165 33.0358 61.5165 32.547C61.5165 32.0582 61.1158 31.6619 60.6214 31.6619H52.683C53.9332 30.7287 54.8561 29.6076 55.5399 28.4415ZM59.7242 21.716C60.2323 22.0105 60.4457 22.6579 60.2814 23.4059C60.036 24.5222 58.8859 25.8823 56.4767 26.4762C57.021 25.0318 57.27 23.6423 57.381 22.5743C57.6493 22.2316 58.6526 21.0944 59.7242 21.716ZM42.6171 31.6619C36.5968 29.6684 35.855 23.7287 35.7921 21.523H55.6776C55.6149 23.7298 54.8728 29.6686 48.8529 31.6619H42.6171Z" fill="black"/>
<path d="M27.7681 40.49C28.1381 40.49 28.4614 40.5633 28.7381 40.71C29.0147 40.8567 29.2281 41.0633 29.3781 41.33C29.5314 41.5933 29.6081 41.8983 29.6081 42.245C29.6081 42.5883 29.5314 42.8933 29.3781 43.16C29.2281 43.4267 29.0131 43.6333 28.7331 43.78C28.4564 43.9267 28.1347 44 27.7681 44H26.4531V40.49H27.7681ZM27.7131 43.26C28.0364 43.26 28.2881 43.1717 28.4681 42.995C28.6481 42.8183 28.7381 42.5683 28.7381 42.245C28.7381 41.9217 28.6481 41.67 28.4681 41.49C28.2881 41.31 28.0364 41.22 27.7131 41.22H27.3081V43.26H27.7131ZM30.9409 40.49V44H30.0859V40.49H30.9409ZM33.8905 41.6C33.8272 41.4833 33.7355 41.395 33.6155 41.335C33.4988 41.2717 33.3605 41.24 33.2005 41.24C32.9238 41.24 32.7022 41.3317 32.5355 41.515C32.3688 41.695 32.2855 41.9367 32.2855 42.24C32.2855 42.5633 32.3722 42.8167 32.5455 43C32.7222 43.18 32.9638 43.27 33.2705 43.27C33.4805 43.27 33.6572 43.2167 33.8005 43.11C33.9472 43.0033 34.0538 42.85 34.1205 42.65H33.0355V42.02H34.8955V42.815C34.8322 43.0283 34.7238 43.2267 34.5705 43.41C34.4205 43.5933 34.2288 43.7417 33.9955 43.855C33.7622 43.9683 33.4988 44.025 33.2055 44.025C32.8588 44.025 32.5488 43.95 32.2755 43.8C32.0055 43.6467 31.7938 43.435 31.6405 43.165C31.4905 42.895 31.4155 42.5867 31.4155 42.24C31.4155 41.8933 31.4905 41.585 31.6405 41.315C31.7938 41.0417 32.0055 40.83 32.2755 40.68C32.5455 40.5267 32.8538 40.45 33.2005 40.45C33.6205 40.45 33.9738 40.5517 34.2605 40.755C34.5505 40.9583 34.7422 41.24 34.8355 41.6H33.8905ZM36.2241 40.49V44H35.3691V40.49H36.2241ZM39.3687 40.49V41.175H38.4387V44H37.5837V41.175H36.6537V40.49H39.3687ZM41.9828 43.38H40.6728L40.4628 44H39.5678L40.8378 40.49H41.8278L43.0978 44H42.1928L41.9828 43.38ZM41.7628 42.72L41.3278 41.435L40.8978 42.72H41.7628ZM44.3393 43.34H45.4593V44H43.4843V40.49H44.3393V43.34ZM49.9667 40.49V44H49.1117V42.555H47.7817V44H46.9267V40.49H47.7817V41.865H49.1117V40.49H49.9667ZM52.7689 43.38H51.4589L51.2489 44H50.3539L51.6239 40.49H52.6139L53.8839 44H52.9789L52.7689 43.38ZM52.5489 42.72L52.1139 41.435L51.6839 42.72H52.5489ZM56.0604 44L55.3304 42.675H55.1254V44H54.2704V40.49H55.7054C55.9821 40.49 56.2171 40.5383 56.4104 40.635C56.6071 40.7317 56.7538 40.865 56.8504 41.035C56.9471 41.2017 56.9954 41.3883 56.9954 41.595C56.9954 41.8283 56.9288 42.0367 56.7954 42.22C56.6654 42.4033 56.4721 42.5333 56.2154 42.61L57.0254 44H56.0604ZM55.1254 42.07H55.6554C55.8121 42.07 55.9288 42.0317 56.0054 41.955C56.0854 41.8783 56.1254 41.77 56.1254 41.63C56.1254 41.4967 56.0854 41.3917 56.0054 41.315C55.9288 41.2383 55.8121 41.2 55.6554 41.2H55.1254V42.07ZM61.5072 40.49V44H60.6522V41.895L59.8672 44H59.1772L58.3872 41.89V44H57.5322V40.49H58.5422L59.5272 42.92L60.5022 40.49H61.5072ZM63.782 44.035C63.452 44.035 63.1487 43.9583 62.872 43.805C62.5987 43.6517 62.3803 43.4383 62.217 43.165C62.057 42.8883 61.977 42.5783 61.977 42.235C61.977 41.8917 62.057 41.5833 62.217 41.31C62.3803 41.0367 62.5987 40.8233 62.872 40.67C63.1487 40.5167 63.452 40.44 63.782 40.44C64.112 40.44 64.4137 40.5167 64.687 40.67C64.9637 40.8233 65.1803 41.0367 65.337 41.31C65.497 41.5833 65.577 41.8917 65.577 42.235C65.577 42.5783 65.497 42.8883 65.337 43.165C65.177 43.4383 64.9603 43.6517 64.687 43.805C64.4137 43.9583 64.112 44.035 63.782 44.035ZM63.782 43.255C64.062 43.255 64.2853 43.1617 64.452 42.975C64.622 42.7883 64.707 42.5417 64.707 42.235C64.707 41.925 64.622 41.6783 64.452 41.495C64.2853 41.3083 64.062 41.215 63.782 41.215C63.4987 41.215 63.272 41.3067 63.102 41.49C62.9353 41.6733 62.852 41.9217 62.852 42.235C62.852 42.545 62.9353 42.7933 63.102 42.98C63.272 43.1633 63.4987 43.255 63.782 43.255ZM69.1927 44H68.3377L66.9077 41.835V44H66.0527V40.49H66.9077L68.3377 42.665V40.49H69.1927V44ZM72.8224 40.49L71.6074 42.84V44H70.7524V42.84L69.5374 40.49H70.5074L71.1874 41.96L71.8624 40.49H72.8224Z" fill="black"/>
</svg>
