<svg width="98" height="60" viewBox="0 0 98 60" fill="none" xmlns="http://www.w3.org/2000/svg">
<rect x="1.25" y="1.25" width="95.5" height="57.5" rx="28.75" fill="#013434" stroke="white" stroke-width="2.5"/>
<circle cx="49.5" cy="22.5" r="1.5" fill="#008080"/>
<path d="M33 32.8498C32.5642 32.8026 32.1425 32.7702 31.7348 32.7526C31.3341 32.7349 30.9265 32.726 30.5117 32.726C29.3942 32.726 28.2484 32.8174 27.0746 33C27.1168 32.8586 27.1625 32.7349 27.2117 32.6288C27.2679 32.5169 27.3171 32.3961 27.3593 32.2665C27.4015 32.131 27.4366 31.9748 27.4647 31.7981C27.4928 31.6213 27.5069 31.3945 27.5069 31.1176C27.5069 30.8348 27.4823 30.5667 27.4331 30.3134C27.3839 30.0542 27.3101 29.8273 27.2117 29.6329C27.1133 29.4326 26.9903 29.2735 26.8427 29.1557C26.7021 29.0378 26.5369 28.9789 26.3471 28.9789C26.1362 28.9789 25.957 29.0319 25.8094 29.138C25.6688 29.2441 25.5528 29.3884 25.4615 29.571C25.3771 29.7537 25.3139 29.9628 25.2717 30.1985C25.2365 30.4342 25.219 30.6846 25.219 30.9497C25.219 31.2148 25.2365 31.4446 25.2717 31.639C25.3139 31.8276 25.3595 31.9925 25.4088 32.1339C25.465 32.2753 25.5177 32.402 25.5669 32.5139C25.6161 32.62 25.6513 32.726 25.6723 32.8321C25.1873 32.785 24.7094 32.7496 24.2384 32.726C23.7745 32.7025 23.3106 32.6907 22.8467 32.6907C22.3828 32.6907 21.9154 32.7025 21.4444 32.726C20.9805 32.7496 20.4991 32.785 20 32.8321C20.4358 31.7716 20.8154 30.7199 21.1387 29.6771C21.469 28.6343 21.7502 27.5855 21.9822 26.5309C22.2141 25.4763 22.4004 24.4099 22.541 23.3318C22.6886 22.2536 22.7975 21.1489 22.8678 20.0177C23.3879 20.0766 23.9573 20.1208 24.5758 20.1502C25.2014 20.1738 25.841 20.1856 26.4947 20.1856C27.05 20.1856 27.5877 20.1738 28.1079 20.1502C28.635 20.1267 29.12 20.0766 29.5628 20C29.612 21.1253 29.7386 22.2329 29.9424 23.3229C30.1463 24.4129 30.3993 25.494 30.7015 26.5663C31.0108 27.6327 31.3623 28.6902 31.7559 29.739C32.1495 30.7818 32.5642 31.8187 33 32.8498ZM27.0957 25.9918C27.0816 25.8799 27.0395 25.7149 26.9692 25.4969C26.9059 25.3084 26.811 25.061 26.6845 24.7546C26.558 24.4423 26.3717 24.0417 26.1257 23.5527C26.0695 23.8591 26.0062 24.133 25.9359 24.3746C25.8656 24.6102 25.7989 24.8253 25.7356 25.0197C25.6723 25.2083 25.6161 25.3821 25.5669 25.5411C25.5247 25.7002 25.5036 25.8504 25.5036 25.9918C25.5036 26.2864 25.5845 26.5162 25.7462 26.6812C25.9148 26.8403 26.1011 26.9198 26.3049 26.9198C26.5228 26.9198 26.7056 26.8314 26.8532 26.6547C27.0008 26.4779 27.0816 26.257 27.0957 25.9918Z" fill="white"/>
<path d="M76 32.8498C75.5642 32.8026 75.1424 32.7702 74.7347 32.7526C74.3341 32.7349 73.9264 32.726 73.5118 32.726C72.3942 32.726 71.2483 32.8174 70.0746 33C70.1167 32.8586 70.1624 32.7349 70.2117 32.6288C70.2678 32.5169 70.3171 32.3961 70.3592 32.2665C70.4013 32.131 70.4366 31.9748 70.4647 31.7981C70.4927 31.6213 70.5068 31.3945 70.5068 31.1176C70.5068 30.8348 70.4823 30.5667 70.433 30.3134C70.3839 30.0542 70.3101 29.8273 70.2117 29.6329C70.1132 29.4326 69.9902 29.2735 69.8426 29.1557C69.7021 29.0378 69.5369 28.9789 69.3471 28.9789C69.1362 28.9789 68.9569 29.0319 68.8094 29.138C68.6687 29.2441 68.5528 29.3884 68.4614 29.571C68.377 29.7537 68.3138 29.9628 68.2715 30.1985C68.2365 30.4342 68.2188 30.6846 68.2188 30.9497C68.2188 31.2148 68.2365 31.4446 68.2715 31.639C68.3138 31.8276 68.3595 31.9925 68.4087 32.1339C68.465 32.2753 68.5177 32.402 68.5668 32.5139C68.6161 32.62 68.6512 32.726 68.6723 32.8321C68.1873 32.785 67.7092 32.7496 67.2383 32.726C66.7744 32.7025 66.3106 32.6907 65.8467 32.6907C65.3828 32.6907 64.9153 32.7025 64.4444 32.726C63.9805 32.7496 63.499 32.785 63 32.8321C63.4356 31.7716 63.8153 30.7199 64.1387 29.6771C64.469 28.6343 64.7501 27.5855 64.982 26.5309C65.214 25.4763 65.4002 24.4099 65.5409 23.3318C65.6885 22.2536 65.7974 21.1489 65.8677 20.0177C66.3879 20.0766 66.9573 20.1208 67.5757 20.1502C68.2014 20.1738 68.8411 20.1856 69.4946 20.1856C70.0499 20.1856 70.5877 20.1738 71.1078 20.1502C71.635 20.1267 72.1199 20.0766 72.5628 20C72.6121 21.1253 72.7386 22.2329 72.9423 23.3229C73.1461 24.4129 73.3993 25.494 73.7014 26.5663C74.0108 27.6327 74.3622 28.6902 74.7559 29.739C75.1494 30.7818 75.5642 31.8187 76 32.8498ZM70.0956 25.9918C70.0816 25.8799 70.0395 25.7149 69.9691 25.4969C69.9058 25.3084 69.8109 25.061 69.6844 24.7546C69.5579 24.4423 69.3717 24.0417 69.1257 23.5527C69.0694 23.8591 69.0061 24.133 68.9359 24.3746C68.8655 24.6102 68.7988 24.8253 68.7356 25.0197C68.6723 25.2083 68.6161 25.3821 68.5668 25.5411C68.5247 25.7002 68.5035 25.8504 68.5035 25.9918C68.5035 26.2864 68.5845 26.5162 68.746 26.6812C68.9148 26.8403 69.1011 26.9198 69.3049 26.9198C69.5229 26.9198 69.7055 26.8314 69.853 26.6547C70.0008 26.4779 70.0816 26.257 70.0956 25.9918Z" fill="white"/>
<path d="M76 32.8498C75.5642 32.8026 75.1424 32.7702 74.7347 32.7526C74.3341 32.7349 73.9264 32.726 73.5118 32.726C72.3942 32.726 71.2483 32.8174 70.0746 33C70.1167 32.8586 70.1624 32.7349 70.2117 32.6288C70.2678 32.5169 70.3171 32.3961 70.3592 32.2665C70.4013 32.131 70.4366 31.9748 70.4647 31.7981C70.4927 31.6213 70.5068 31.3945 70.5068 31.1176C70.5068 30.8348 70.4823 30.5667 70.433 30.3134C70.3839 30.0542 70.3101 29.8273 70.2117 29.6329C70.1132 29.4326 69.9902 29.2735 69.8426 29.1557C69.7021 29.0378 69.5369 28.9789 69.3471 28.9789C69.1362 28.9789 68.9569 29.0319 68.8094 29.138C68.6687 29.2441 68.5528 29.3884 68.4614 29.571C68.377 29.7537 68.3138 29.9628 68.2715 30.1985C68.2365 30.4342 68.2188 30.6846 68.2188 30.9497C68.2188 31.2148 68.2365 31.4446 68.2715 31.639C68.3138 31.8276 68.3595 31.9925 68.4087 32.1339C68.465 32.2753 68.5177 32.402 68.5668 32.5139C68.6161 32.62 68.6512 32.726 68.6723 32.8321C68.1873 32.785 67.7092 32.7496 67.2383 32.726C66.7744 32.7025 66.3106 32.6907 65.8467 32.6907C65.3828 32.6907 64.9153 32.7025 64.4444 32.726C63.9805 32.7496 63.499 32.785 63 32.8321C63.4356 31.7716 63.8153 30.7199 64.1387 29.6771C64.469 28.6343 64.7501 27.5855 64.982 26.5309C65.214 25.4763 65.4002 24.4099 65.5409 23.3318C65.6885 22.2536 65.7974 21.1489 65.8677 20.0177C66.3879 20.0766 66.9573 20.1208 67.5757 20.1502C68.2014 20.1738 68.8411 20.1856 69.4946 20.1856C70.0499 20.1856 70.5877 20.1738 71.1078 20.1502C71.635 20.1267 72.1199 20.0766 72.5628 20C72.6121 21.1253 72.7386 22.2329 72.9423 23.3229C73.1461 24.4129 73.3993 25.494 73.7014 26.5663C74.0108 27.6327 74.3622 28.6902 74.7559 29.739C75.1494 30.7818 75.5642 31.8187 76 32.8498ZM70.0956 25.9918C70.0816 25.8799 70.0395 25.7149 69.9691 25.4969C69.9058 25.3084 69.8109 25.061 69.6844 24.7546C69.5579 24.4423 69.3717 24.0417 69.1257 23.5527C69.0694 23.8591 69.0061 24.133 68.9359 24.3746C68.8655 24.6102 68.7988 24.8253 68.7356 25.0197C68.6723 25.2083 68.6161 25.3821 68.5668 25.5411C68.5247 25.7002 68.5035 25.8504 68.5035 25.9918C68.5035 26.2864 68.5845 26.5162 68.746 26.6812C68.9148 26.8403 69.1011 26.9198 69.3049 26.9198C69.5229 26.9198 69.7055 26.8314 69.853 26.6547C70.0008 26.4779 70.0816 26.257 70.0956 25.9918Z" fill="white"/>
<path d="M40.3164 20.426C40.3164 20.426 39.2985 30.1322 51.5321 30.7199C51.5321 30.7199 49.5996 32.0796 45.018 32.3103C40.4364 32.541 35.718 30.3006 34.5244 20.7721L40.3164 20.426Z" fill="#008080"/>
<path d="M55.5399 28.4415C59.6696 27.9359 61.6044 25.7215 62.0308 23.7818C62.36 22.2836 61.8103 20.8731 60.6298 20.1887C59.414 19.4843 58.2649 19.72 57.3658 20.2471C57.2192 19.9532 56.9137 19.7527 56.5631 19.7527H34.9067C34.436 19.7527 34.0457 20.1134 34.0135 20.5777C34.0079 20.6624 33.5941 27.7863 38.787 31.6619H34.8951C34.4008 31.6619 34 32.0582 34 32.547C34 33.0358 34.4008 33.4321 34.8951 33.4321H60.6214C61.1158 33.4321 61.5165 33.0358 61.5165 32.547C61.5165 32.0582 61.1158 31.6619 60.6214 31.6619H52.683C53.9332 30.7287 54.8561 29.6076 55.5399 28.4415ZM59.7242 21.716C60.2323 22.0105 60.4457 22.6579 60.2814 23.4059C60.036 24.5222 58.8859 25.8823 56.4767 26.4762C57.021 25.0318 57.27 23.6423 57.381 22.5743C57.6493 22.2316 58.6526 21.0944 59.7242 21.716ZM42.6171 31.6619C36.5968 29.6684 35.855 23.7287 35.7921 21.523H55.6776C55.6149 23.7298 54.8728 29.6686 48.8529 31.6619H42.6171Z" fill="white"/>
<path d="M32.8965 43.5947L32.7256 43.1455H31.2705L31.0996 43.6045C31.0329 43.7835 30.9759 43.9048 30.9287 43.9683C30.8815 44.0301 30.8042 44.061 30.6968 44.061C30.6056 44.061 30.5251 44.0277 30.4551 43.9609C30.3851 43.8942 30.3501 43.8185 30.3501 43.7339C30.3501 43.6851 30.3582 43.6346 30.3745 43.5825C30.3908 43.5304 30.4176 43.458 30.4551 43.3652L31.3706 41.041C31.3966 40.9743 31.4276 40.8945 31.4634 40.8018C31.5008 40.7074 31.5399 40.6292 31.5806 40.5674C31.6229 40.5055 31.6774 40.4559 31.7441 40.4185C31.8125 40.3794 31.8963 40.3599 31.9956 40.3599C32.0965 40.3599 32.1803 40.3794 32.2471 40.4185C32.3154 40.4559 32.37 40.5047 32.4106 40.5649C32.453 40.6252 32.488 40.6903 32.5156 40.7603C32.5449 40.8286 32.5815 40.9206 32.6255 41.0361L33.5605 43.3457C33.6338 43.5215 33.6704 43.6493 33.6704 43.729C33.6704 43.812 33.6354 43.8885 33.5654 43.9585C33.4971 44.0269 33.4141 44.061 33.3164 44.061C33.2594 44.061 33.2106 44.0505 33.1699 44.0293C33.1292 44.0098 33.0951 43.9829 33.0674 43.9487C33.0397 43.9129 33.0096 43.8592 32.9771 43.7876C32.9461 43.7144 32.9193 43.6501 32.8965 43.5947ZM31.4609 42.6011H32.5303L31.9907 41.124L31.4609 42.6011ZM35.1792 42.4692H34.9253V43.6191C34.9253 43.7705 34.8919 43.882 34.8252 43.9536C34.7585 44.0252 34.6714 44.061 34.564 44.061C34.4484 44.061 34.3589 44.0236 34.2954 43.9487C34.2319 43.8739 34.2002 43.764 34.2002 43.6191V40.8652C34.2002 40.709 34.2352 40.5959 34.3052 40.5259C34.3752 40.4559 34.4883 40.4209 34.6445 40.4209H35.8237C35.9865 40.4209 36.1257 40.4282 36.2412 40.4429C36.3568 40.4559 36.4609 40.4836 36.5537 40.5259C36.666 40.5731 36.7653 40.6406 36.8516 40.7285C36.9378 40.8164 37.0029 40.9189 37.0469 41.0361C37.0924 41.1517 37.1152 41.2746 37.1152 41.4048C37.1152 41.6717 37.0396 41.8849 36.8882 42.0444C36.7384 42.2039 36.5106 42.3171 36.2046 42.3838C36.3332 42.4521 36.4561 42.5531 36.5732 42.6865C36.6904 42.82 36.7946 42.9624 36.8857 43.1138C36.9785 43.2635 37.0501 43.3994 37.1006 43.5215C37.1527 43.6419 37.1787 43.7249 37.1787 43.7705C37.1787 43.8177 37.1632 43.8649 37.1323 43.9121C37.103 43.9577 37.0623 43.9935 37.0103 44.0195C36.9582 44.0472 36.8979 44.061 36.8296 44.061C36.7482 44.061 36.6799 44.0415 36.6245 44.0024C36.5692 43.965 36.5212 43.917 36.4805 43.8584C36.4414 43.7998 36.3877 43.7135 36.3193 43.5996L36.0288 43.1162C35.9246 42.9388 35.8311 42.8037 35.748 42.7109C35.6667 42.6182 35.5837 42.5547 35.499 42.5205C35.4144 42.4863 35.3078 42.4692 35.1792 42.4692ZM35.5942 40.9653H34.9253V41.9492H35.5747C35.7489 41.9492 35.8953 41.9346 36.0142 41.9053C36.133 41.8743 36.2233 41.8231 36.2852 41.7515C36.3486 41.6782 36.3804 41.5781 36.3804 41.4512C36.3804 41.3519 36.3551 41.2648 36.3047 41.1899C36.2542 41.1134 36.1842 41.0565 36.0947 41.019C36.0101 40.9832 35.8433 40.9653 35.5942 40.9653ZM39.8789 41.019H39.0879V43.6191C39.0879 43.7689 39.0545 43.8804 38.9878 43.9536C38.9211 44.0252 38.8348 44.061 38.729 44.061C38.6216 44.061 38.5337 44.0244 38.4653 43.9512C38.3986 43.8779 38.3652 43.7673 38.3652 43.6191V41.019H37.5742C37.4505 41.019 37.3586 40.9922 37.2983 40.9385C37.2381 40.8831 37.208 40.8107 37.208 40.7212C37.208 40.6284 37.2389 40.5552 37.3008 40.5015C37.3643 40.4478 37.4554 40.4209 37.5742 40.4209H39.8789C40.0042 40.4209 40.097 40.4486 40.1572 40.5039C40.2191 40.5592 40.25 40.6317 40.25 40.7212C40.25 40.8107 40.2191 40.8831 40.1572 40.9385C40.0954 40.9922 40.0026 41.019 39.8789 41.019ZM44.979 42.8696C44.979 42.9836 44.9505 43.1073 44.8936 43.2407C44.8382 43.3726 44.7503 43.5028 44.6299 43.6313C44.5094 43.7583 44.3556 43.8617 44.1685 43.9414C43.9813 44.0212 43.7632 44.061 43.5142 44.061C43.3254 44.061 43.1536 44.0431 42.999 44.0073C42.8444 43.9715 42.7036 43.9162 42.5767 43.8413C42.4513 43.7648 42.3358 43.6647 42.23 43.541C42.1356 43.4287 42.055 43.3034 41.9883 43.165C41.9215 43.0251 41.8711 42.8761 41.8369 42.7183C41.8044 42.5604 41.7881 42.3927 41.7881 42.2153C41.7881 41.9272 41.8296 41.6693 41.9126 41.4414C41.9972 41.2135 42.1177 41.019 42.2739 40.8579C42.4302 40.6951 42.6133 40.5715 42.8232 40.4868C43.0332 40.4022 43.257 40.3599 43.4946 40.3599C43.7843 40.3599 44.0423 40.4176 44.2686 40.5332C44.4948 40.6488 44.6681 40.792 44.7886 40.9629C44.909 41.1322 44.9692 41.2925 44.9692 41.4438C44.9692 41.5269 44.9399 41.6001 44.8813 41.6636C44.8228 41.7271 44.752 41.7588 44.6689 41.7588C44.5762 41.7588 44.5062 41.7368 44.459 41.6929C44.4134 41.6489 44.3621 41.5732 44.3052 41.4658C44.2108 41.2884 44.0993 41.1558 43.9707 41.0679C43.8438 40.98 43.6867 40.936 43.4995 40.936C43.2017 40.936 42.964 41.0492 42.7866 41.2754C42.6108 41.5016 42.5229 41.8231 42.5229 42.2397C42.5229 42.5181 42.562 42.75 42.6401 42.9355C42.7183 43.1195 42.8289 43.257 42.9722 43.3481C43.1154 43.4393 43.283 43.4849 43.4751 43.4849C43.6834 43.4849 43.8592 43.4336 44.0024 43.3311C44.1473 43.2269 44.2563 43.0747 44.3296 42.8745C44.3605 42.7801 44.3988 42.7036 44.4443 42.645C44.4899 42.5848 44.5632 42.5547 44.6641 42.5547C44.7503 42.5547 44.8244 42.5848 44.8862 42.645C44.9481 42.7052 44.979 42.7801 44.979 42.8696ZM46.605 42.4692H46.3511V43.6191C46.3511 43.7705 46.3177 43.882 46.251 43.9536C46.1842 44.0252 46.0972 44.061 45.9897 44.061C45.8742 44.061 45.7847 44.0236 45.7212 43.9487C45.6577 43.8739 45.626 43.764 45.626 43.6191V40.8652C45.626 40.709 45.661 40.5959 45.731 40.5259C45.8009 40.4559 45.9141 40.4209 46.0703 40.4209H47.2495C47.4123 40.4209 47.5514 40.4282 47.667 40.4429C47.7826 40.4559 47.8867 40.4836 47.9795 40.5259C48.0918 40.5731 48.1911 40.6406 48.2773 40.7285C48.3636 40.8164 48.4287 40.9189 48.4727 41.0361C48.5182 41.1517 48.541 41.2746 48.541 41.4048C48.541 41.6717 48.4653 41.8849 48.314 42.0444C48.1642 42.2039 47.9364 42.3171 47.6304 42.3838C47.759 42.4521 47.8818 42.5531 47.999 42.6865C48.1162 42.82 48.2204 42.9624 48.3115 43.1138C48.4043 43.2635 48.4759 43.3994 48.5264 43.5215C48.5785 43.6419 48.6045 43.7249 48.6045 43.7705C48.6045 43.8177 48.589 43.8649 48.5581 43.9121C48.5288 43.9577 48.4881 43.9935 48.436 44.0195C48.384 44.0472 48.3237 44.061 48.2554 44.061C48.174 44.061 48.1056 44.0415 48.0503 44.0024C47.995 43.965 47.9469 43.917 47.9062 43.8584C47.8672 43.7998 47.8135 43.7135 47.7451 43.5996L47.4546 43.1162C47.3504 42.9388 47.2568 42.8037 47.1738 42.7109C47.0924 42.6182 47.0094 42.5547 46.9248 42.5205C46.8402 42.4863 46.7336 42.4692 46.605 42.4692ZM47.02 40.9653H46.3511V41.9492H47.0005C47.1746 41.9492 47.3211 41.9346 47.4399 41.9053C47.5588 41.8743 47.6491 41.8231 47.7109 41.7515C47.7744 41.6782 47.8062 41.5781 47.8062 41.4512C47.8062 41.3519 47.7809 41.2648 47.7305 41.1899C47.68 41.1134 47.61 41.0565 47.5205 41.019C47.4359 40.9832 47.269 40.9653 47.02 40.9653ZM51.5879 40.98H49.9546V41.8589H51.4585C51.5692 41.8589 51.6514 41.8841 51.7051 41.9346C51.7604 41.9834 51.7881 42.0485 51.7881 42.1299C51.7881 42.2113 51.7612 42.278 51.7075 42.3301C51.6538 42.3805 51.5708 42.4058 51.4585 42.4058H49.9546V43.4238H51.644C51.758 43.4238 51.8434 43.4507 51.9004 43.5044C51.959 43.5565 51.9883 43.6265 51.9883 43.7144C51.9883 43.799 51.959 43.8682 51.9004 43.9219C51.8434 43.974 51.758 44 51.644 44H49.6738C49.516 44 49.402 43.965 49.332 43.895C49.2637 43.825 49.2295 43.7119 49.2295 43.5557V40.8652C49.2295 40.7611 49.245 40.6764 49.2759 40.6113C49.3068 40.5446 49.3548 40.4966 49.4199 40.4673C49.4867 40.4364 49.5713 40.4209 49.6738 40.4209H51.5879C51.7035 40.4209 51.7889 40.4469 51.8442 40.499C51.9012 40.5495 51.9297 40.6162 51.9297 40.6992C51.9297 40.7839 51.9012 40.8522 51.8442 40.9043C51.7889 40.9548 51.7035 40.98 51.5879 40.98ZM54.8545 43.5947L54.6836 43.1455H53.2285L53.0576 43.6045C52.9909 43.7835 52.9339 43.9048 52.8867 43.9683C52.8395 44.0301 52.7622 44.061 52.6548 44.061C52.5636 44.061 52.4831 44.0277 52.4131 43.9609C52.3431 43.8942 52.3081 43.8185 52.3081 43.7339C52.3081 43.6851 52.3162 43.6346 52.3325 43.5825C52.3488 43.5304 52.3757 43.458 52.4131 43.3652L53.3286 41.041C53.3547 40.9743 53.3856 40.8945 53.4214 40.8018C53.4588 40.7074 53.4979 40.6292 53.5386 40.5674C53.5809 40.5055 53.6354 40.4559 53.7021 40.4185C53.7705 40.3794 53.8543 40.3599 53.9536 40.3599C54.0545 40.3599 54.1383 40.3794 54.2051 40.4185C54.2734 40.4559 54.328 40.5047 54.3687 40.5649C54.411 40.6252 54.446 40.6903 54.4736 40.7603C54.5029 40.8286 54.5396 40.9206 54.5835 41.0361L55.5186 43.3457C55.5918 43.5215 55.6284 43.6493 55.6284 43.729C55.6284 43.812 55.5934 43.8885 55.5234 43.9585C55.4551 44.0269 55.3721 44.061 55.2744 44.061C55.2174 44.061 55.1686 44.0505 55.1279 44.0293C55.0872 44.0098 55.0531 43.9829 55.0254 43.9487C54.9977 43.9129 54.9676 43.8592 54.9351 43.7876C54.9041 43.7144 54.8773 43.6501 54.8545 43.5947ZM53.4189 42.6011H54.4883L53.9487 41.124L53.4189 42.6011ZM58.0479 41.019H57.2568V43.6191C57.2568 43.7689 57.2235 43.8804 57.1567 43.9536C57.09 44.0252 57.0037 44.061 56.8979 44.061C56.7905 44.061 56.7026 44.0244 56.6343 43.9512C56.5675 43.8779 56.5342 43.7673 56.5342 43.6191V41.019H55.7432C55.6195 41.019 55.5275 40.9922 55.4673 40.9385C55.4071 40.8831 55.377 40.8107 55.377 40.7212C55.377 40.6284 55.4079 40.5552 55.4697 40.5015C55.5332 40.4478 55.6243 40.4209 55.7432 40.4209H58.0479C58.1732 40.4209 58.266 40.4486 58.3262 40.5039C58.388 40.5592 58.4189 40.6317 58.4189 40.7212C58.4189 40.8107 58.388 40.8831 58.3262 40.9385C58.2643 40.9922 58.1715 41.019 58.0479 41.019ZM58.8779 43.6191V40.7993C58.8779 40.6528 58.9113 40.543 58.978 40.4697C59.0448 40.3965 59.131 40.3599 59.2368 40.3599C59.3459 40.3599 59.4338 40.3965 59.5005 40.4697C59.5688 40.5413 59.603 40.6512 59.603 40.7993V43.6191C59.603 43.7673 59.5688 43.8779 59.5005 43.9512C59.4338 44.0244 59.3459 44.061 59.2368 44.061C59.1326 44.061 59.0464 44.0244 58.978 43.9512C58.9113 43.8763 58.8779 43.7656 58.8779 43.6191ZM61.9907 40.3599C62.3618 40.3599 62.68 40.4355 62.9453 40.5869C63.2122 40.7367 63.4141 40.9507 63.5508 41.229C63.6875 41.5057 63.7559 41.8312 63.7559 42.2056C63.7559 42.4823 63.7184 42.7337 63.6436 42.96C63.5687 43.1862 63.4564 43.3823 63.3066 43.5483C63.1569 43.7144 62.973 43.8413 62.7549 43.9292C62.5368 44.0171 62.2869 44.061 62.0054 44.061C61.7254 44.061 61.4748 44.0163 61.2534 43.9268C61.0321 43.8356 60.8473 43.7078 60.6992 43.5435C60.5511 43.3791 60.4388 43.1813 60.3623 42.9502C60.2874 42.7191 60.25 42.4692 60.25 42.2007C60.25 41.9256 60.2891 41.6733 60.3672 41.4438C60.4469 41.2144 60.5617 41.019 60.7114 40.8579C60.8612 40.6968 61.0435 40.5739 61.2583 40.4893C61.4731 40.403 61.7173 40.3599 61.9907 40.3599ZM63.021 42.2007C63.021 41.9386 62.9787 41.7116 62.894 41.5195C62.8094 41.3275 62.6882 41.1826 62.5303 41.085C62.374 40.9857 62.1942 40.936 61.9907 40.936C61.8459 40.936 61.7116 40.9637 61.5879 41.019C61.4658 41.0728 61.36 41.1517 61.2705 41.2559C61.1826 41.36 61.1126 41.4935 61.0605 41.6562C61.0101 41.8174 60.9849 41.9989 60.9849 42.2007C60.9849 42.4041 61.0101 42.5881 61.0605 42.7524C61.1126 42.9168 61.1851 43.0535 61.2778 43.1626C61.3722 43.27 61.4797 43.3506 61.6001 43.4043C61.7222 43.458 61.8556 43.4849 62.0005 43.4849C62.186 43.4849 62.3561 43.4385 62.5107 43.3457C62.667 43.2529 62.7907 43.1097 62.8818 42.916C62.9746 42.7223 63.021 42.4839 63.021 42.2007ZM65.3208 40.7944L66.7148 42.9038V40.7749C66.7148 40.6366 66.7441 40.5332 66.8027 40.4648C66.863 40.3949 66.9435 40.3599 67.0444 40.3599C67.1486 40.3599 67.2308 40.3949 67.291 40.4648C67.3512 40.5332 67.3813 40.6366 67.3813 40.7749V43.5898C67.3813 43.904 67.2511 44.061 66.9907 44.061C66.9256 44.061 66.867 44.0513 66.8149 44.0317C66.7629 44.0138 66.714 43.9845 66.6685 43.9438C66.6229 43.9032 66.5806 43.856 66.5415 43.8022C66.5024 43.7469 66.4634 43.6908 66.4243 43.6338L65.0645 41.5488V43.646C65.0645 43.7827 65.0327 43.8861 64.9692 43.9561C64.9058 44.026 64.8244 44.061 64.7251 44.061C64.6226 44.061 64.5404 44.026 64.4785 43.9561C64.4167 43.8844 64.3857 43.7811 64.3857 43.646V40.8848C64.3857 40.7676 64.3988 40.6756 64.4248 40.6089C64.4557 40.5356 64.507 40.4762 64.5786 40.4307C64.6502 40.3835 64.7275 40.3599 64.8105 40.3599C64.8757 40.3599 64.931 40.3704 64.9766 40.3916C65.0238 40.4128 65.0645 40.4412 65.0986 40.4771C65.1344 40.5129 65.1702 40.5592 65.2061 40.6162C65.2435 40.6732 65.2817 40.7326 65.3208 40.7944Z" fill="white"/>
</svg>
